<?xml version="1.0" standalone="no"?>
<!DOCTYPE svg PUBLIC "-//W3C//DTD SVG 1.1//EN" "http://www.w3.org/Graphics/SVG/1.1/DTD/svg11.dtd" >
<svg xmlns="http://www.w3.org/2000/svg" xmlns:xlink="http://www.w3.org/1999/xlink" version="1.1">
<metadata></metadata>
<defs>
<font id="texta_narrowitalic" horiz-adv-x="1114" >
<font-face units-per-em="2048" ascent="1536" descent="-512" />
<missing-glyph horiz-adv-x="411" />
<glyph horiz-adv-x="0" />
<glyph horiz-adv-x="682" />
<glyph horiz-adv-x="0" />
<glyph horiz-adv-x="0" />
<glyph unicode="&#xd;" horiz-adv-x="225" />
<glyph unicode=" "  horiz-adv-x="411" />
<glyph unicode="&#x09;" horiz-adv-x="411" />
<glyph unicode="&#xa0;" horiz-adv-x="411" />
<glyph unicode="!" horiz-adv-x="395" d="M457 1229l-162 -887h-100l86 887h176zM113 74q0 45 33.5 78.5t78.5 33.5q35 0 58.5 -25.5t23.5 -62.5q0 -47 -33.5 -80.5t-76.5 -33.5q-37 0 -60.5 25.5t-23.5 64.5z" />
<glyph unicode="&#x22;" horiz-adv-x="600" d="M463 1401l-144 -428h-88l97 428h135zM735 1401l-143 -428h-88l96 428h135z" />
<glyph unicode="#" horiz-adv-x="1144" d="M1100 1194l-111 -332h219l-34 -92h-218l-116 -350h211l-31 -92h-211l-109 -328h-94l107 328h-297l-109 -328h-96l108 328h-215l31 92h215l117 350h-209l33 92h209l110 332h95l-111 -332h297l110 332h99zM561 770l-117 -350h299l117 350h-299z" />
<glyph unicode="$" horiz-adv-x="940" d="M92 117l92 108q3 -4 9.5 -10.5t29 -24.5t48.5 -32.5t69 -29t90 -19.5l66 466q-156 56 -224.5 125.5t-68.5 178.5q0 157 104.5 258t284.5 116l31 213h118l-30 -213q61 -4 114.5 -18t85.5 -30.5t55 -32.5t32 -26l10 -11l-95 -119q-3 3 -8.5 9t-25.5 21.5t-43.5 28t-62 25 t-81.5 16.5l-59 -424q167 -57 235 -130.5t68 -184.5q0 -165 -107.5 -275t-298.5 -127l-26 -194h-119l27 192q-65 5 -121.5 21.5t-91.5 37t-60.5 40t-36.5 32.5zM784 350q0 60 -38.5 102.5t-135.5 82.5l-59 -424q117 13 175 76.5t58 162.5zM352 901q0 -54 37 -92t129 -76 l55 383q-101 -14 -161 -69.5t-60 -145.5z" />
<glyph unicode="%" horiz-adv-x="1214" d="M496 1255q97 0 149.5 -73t52.5 -185q0 -92 -35.5 -173.5t-102.5 -134t-150 -52.5q-98 0 -151.5 74.5t-53.5 185.5q0 93 35.5 174t103 132.5t152.5 51.5zM479 1139q-68 0 -107.5 -69.5t-39.5 -168.5q0 -66 24 -106.5t70 -40.5q66 0 105.5 69.5t39.5 169.5q0 65 -24 105.5 t-68 40.5zM983 602q97 0 151 -73.5t54 -184.5q0 -92 -36 -174t-104 -134t-151 -52q-98 0 -151.5 74.5t-53.5 185.5q0 93 35.5 174t103 132.5t152.5 51.5zM967 487q-67 0 -107.5 -69t-40.5 -168q0 -66 24 -107t70 -41q64 0 105 69.5t41 166.5q0 68 -23.5 108.5t-68.5 40.5z M1135 1229h159l-1061 -1229h-155z" />
<glyph unicode="&#x26;" horiz-adv-x="1093" d="M932 569l127 -34q-57 -168 -144 -295l187 -240h-209l-86 115q-148 -135 -332 -135q-166 0 -256 81.5t-90 208.5q0 71 22 129.5t64.5 104t86.5 77.5t106 66l-27 37q-68 94 -68 219q0 149 99 250.5t247 101.5q122 0 192.5 -68.5t70.5 -178.5q0 -74 -23.5 -134t-70 -106.5 t-92 -78t-113.5 -68.5l211 -275q58 96 98 223zM485 102q134 0 248 111l-248 332q-98 -57 -148 -114.5t-50 -143.5q0 -84 57 -134.5t141 -50.5zM461 922q0 -86 63 -172l21 -29q56 29 90 51.5t69.5 54.5t52.5 71.5t17 88.5q0 68 -36 108t-97 40q-75 0 -127.5 -58.5 t-52.5 -154.5z" />
<glyph unicode="'" horiz-adv-x="327" d="M463 1401l-144 -428h-88l97 428h135z" />
<glyph unicode="(" horiz-adv-x="479" d="M283 379q0 -186 36.5 -334.5t98.5 -237.5l-99 -88q-82 106 -133 277t-51 389q0 189 35.5 357.5t98 300t135 231.5t159.5 182l74 -88q-158 -160 -256 -410.5t-98 -578.5z" />
<glyph unicode=")" horiz-adv-x="479" d="M362 797q0 187 -37 334.5t-100 236.5l101 88q82 -105 132 -275.5t50 -389.5q0 -189 -35.5 -358t-98 -300.5t-134 -231t-158.5 -182.5l-76 88q159 159 257.5 410.5t98.5 579.5z" />
<glyph unicode="*" horiz-adv-x="716" d="M276 911l203 197l-235 43l61 127l191 -137l2 274h120l-86 -276l240 139l25 -127l-256 -43l155 -197l-118 -75l-72 245l-139 -245z" />
<glyph unicode="+" horiz-adv-x="972" d="M694 1055l-55 -393h354l-16 -119h-354l-54 -377h-120l53 377h-355l17 119h354l55 393h121z" />
<glyph unicode="," horiz-adv-x="378" d="M291 74l-2 -17q-15 -122 -91 -204.5t-188 -104.5l-12 82q68 17 113.5 58.5t54.5 93.5q-28 5 -46 26.5t-18 52.5q0 44 32.5 76.5t74.5 32.5q39 0 63 -28t19 -68z" />
<glyph unicode="-" horiz-adv-x="741" d="M166 410l16 118h525l-17 -118h-524z" />
<glyph unicode="." horiz-adv-x="376" d="M186 -20q-36 0 -59 23t-23 60q0 42 33.5 74.5t75.5 32.5q35 0 57.5 -24t22.5 -60q0 -43 -32.5 -74.5t-74.5 -31.5z" />
<glyph unicode="/" horiz-adv-x="1069" d="M162 -227l-156 -2l1100 1833h149z" />
<glyph unicode="0" horiz-adv-x="1120" d="M557 -29q-127 0 -218 71.5t-134 188.5t-43 267t41.5 287.5t115 241.5t182.5 166t236 62t218 -70.5t134.5 -188t43.5 -267.5q0 -149 -41.5 -286.5t-115.5 -242t-183 -167t-236 -62.5zM575 109q121 0 216.5 86.5t145.5 224t50 297.5q0 115 -29 204.5t-91 144t-148 54.5 q-121 0 -216 -87.5t-144.5 -225.5t-49.5 -297q0 -176 68.5 -288.5t197.5 -112.5z" />
<glyph unicode="1" horiz-adv-x="559" d="M182 1096l19 133h397l-172 -1229h-143l153 1096h-254z" />
<glyph unicode="2" horiz-adv-x="917" d="M84 0l14 96l537 535q59 58 88 93.5t47 82t18 104.5q0 92 -54 150.5t-148 58.5q-152 0 -301 -149l-64 112q6 7 18 18.5t51.5 41t81.5 52.5t106 41.5t128 18.5q163 0 247.5 -86.5t84.5 -228.5q0 -97 -30.5 -175.5t-131.5 -182.5l-452 -449h532l-18 -133h-754z" />
<glyph unicode="3" horiz-adv-x="915" d="M381 602l18 121l369 373h-518l18 133h711l-16 -121l-385 -383q148 -3 226.5 -84t78.5 -223q0 -123 -54 -224t-159.5 -162t-243.5 -61q-69 0 -129.5 17.5t-96.5 43t-62.5 51t-37.5 43.5l-10 17l98 105q3 -6 9 -15.5t28.5 -34t49 -43t72 -34t95.5 -15.5q129 0 211 84 t82 207q0 98 -57.5 151.5t-171.5 53.5h-125z" />
<glyph unicode="4" horiz-adv-x="1034" d="M86 291l14 106l746 832h104l-112 -805h204l-18 -133h-205l-41 -291h-141l41 291h-592zM299 430l-2 -6h399l76 543l-442 -510z" />
<glyph unicode="5" horiz-adv-x="897" d="M920 1096h-490l-59 -367q66 16 145 16q181 0 272 -85t91 -232q0 -198 -122 -327.5t-333 -129.5q-71 0 -131.5 17.5t-96.5 43t-62 51t-36 43.5l-10 17l100 105q3 -6 9 -15.5t28 -34t48.5 -43t71.5 -34t95 -15.5q130 0 210.5 82t80.5 218q0 97 -61 151.5t-178 54.5 q-146 0 -252 -53l-27 25l106 645h619z" />
<glyph unicode="6" horiz-adv-x="968" d="M698 1120q-304 0 -379 -502q59 68 139 107t173 39q145 0 232 -96t87 -238q0 -181 -128.5 -315.5t-311.5 -134.5q-160 0 -254 115t-94 362q0 191 43 344t118.5 251.5t176 150.5t217.5 52q65 0 119 -17.5t84.5 -43t52 -51t29.5 -43.5l8 -17l-101 -104q-2 6 -7 15.5 t-23 33.5t-40 43t-60 34t-81 15zM301 369q10 -131 71 -192.5t156 -61.5q115 0 197 90.5t82 214.5q0 93 -54 151t-145 58q-108 0 -190.5 -70.5t-116.5 -189.5z" />
<glyph unicode="7" horiz-adv-x="813" d="M207 1096l18 133h736l-13 -96l-647 -1133h-174l635 1096h-555z" />
<glyph unicode="8" horiz-adv-x="960" d="M479 -29q-166 0 -257 92.5t-91 231.5q0 116 57 206.5t160 143.5q-108 76 -108 225q0 163 116 274t303 111q151 0 234.5 -83t83.5 -214q0 -100 -48 -180.5t-134 -132.5q61 -38 95 -105.5t34 -150.5q0 -82 -31.5 -157t-87.5 -133t-141 -93t-185 -35zM778 373 q0 90 -57.5 147.5t-157.5 57.5q-128 0 -207.5 -77t-79.5 -190q0 -90 59.5 -147.5t162.5 -57.5q121 0 200.5 77.5t79.5 189.5zM582 702q119 0 183 69t64 171q0 78 -47.5 128t-142.5 50q-120 0 -186 -69t-66 -168q0 -80 49 -130.5t146 -50.5z" />
<glyph unicode="9" horiz-adv-x="960" d="M459 106q140 0 234 123.5t120 386.5q-57 -69 -136 -107t-171 -38q-147 0 -234.5 96t-87.5 238q0 118 58 221.5t160.5 166t224.5 62.5q157 0 251.5 -115.5t94.5 -361.5q0 -374 -147.5 -590.5t-385.5 -216.5q-67 0 -122 17.5t-86 43t-52.5 51t-29.5 43.5l-7 17l101 105 q2 -6 7 -15.5t23.5 -34t40.5 -43t61 -34t83 -15.5zM528 606q105 0 185.5 66.5t117.5 181.5q-13 136 -72.5 201t-150.5 65q-115 0 -197.5 -90.5t-82.5 -214.5q0 -94 53 -151.5t147 -57.5z" />
<glyph unicode=":" horiz-adv-x="401" d="M203 -20q-37 0 -60.5 23t-23.5 60q0 42 33.5 74.5t76.5 32.5q37 0 60.5 -24.5t23.5 -61.5q0 -42 -33.5 -73t-76.5 -31zM301 684q-37 0 -60.5 23.5t-23.5 60.5q0 42 34 74t77 32q37 0 60.5 -24.5t23.5 -61.5q0 -42 -34 -73t-77 -31z" />
<glyph unicode=";" horiz-adv-x="436" d="M33 -170q68 17 113.5 58.5t54.5 93.5q-28 5 -46 26.5t-18 52.5q0 44 32.5 76.5t74.5 32.5q40 0 65.5 -28.5t16.5 -67.5l-2 -8v-9q-6 -120 -85 -203t-194 -106zM317 684q-35 0 -57 23t-22 59q0 44 32 76t74 32q36 0 59 -23.5t23 -59.5q0 -44 -33 -75.5t-76 -31.5z" />
<glyph unicode="&#x3c;" horiz-adv-x="698" d="M147 582l9 61l569 404l-20 -148l-390 -287l308 -286l-21 -148z" />
<glyph unicode="=" horiz-adv-x="876" d="M219 735l17 119h649l-17 -119h-649zM164 344l16 119h649l-16 -119h-649z" />
<glyph unicode="&#x3e;" horiz-adv-x="698" d="M723 643l-8 -61l-568 -404l21 148l387 286l-307 287l22 148z" />
<glyph unicode="?" horiz-adv-x="780" d="M258 1028l-43 119q5 4 15 11.5t41.5 26t66 33t86.5 26t104 11.5q150 0 235 -73t85 -201q0 -69 -18.5 -127t-49.5 -99t-68 -76.5t-77 -66.5t-74.5 -62t-61 -70t-36.5 -83l-12 -55h-101l10 80q9 66 47 125.5t86 103t94.5 87t78.5 97t32 113.5q0 76 -51 124t-137 48 q-40 0 -80.5 -9.5t-70 -23t-53.5 -27t-36 -22.5zM274 72q0 47 33 80.5t76 33.5q38 0 62 -25.5t24 -62.5q0 -47 -34.5 -80.5t-80.5 -33.5q-35 0 -57.5 25.5t-22.5 62.5z" />
<glyph unicode="@" horiz-adv-x="1882" d="M1432 104q-107 0 -160.5 56t-61.5 143h-20q-10 -14 -25.5 -32.5t-48.5 -47t-69.5 -51t-89.5 -39t-107 -16.5q-130 0 -206.5 86.5t-76.5 232.5q0 123 44.5 233.5t116 185.5t163.5 119t186 44q55 0 99.5 -13.5t70.5 -33t44.5 -45.5t26 -46t11.5 -40l60 157h104l-129 -522 q-21 -73 -21 -115q0 -64 29 -100.5t86 -36.5q54 0 108.5 36t99 100.5t72 164.5t27.5 217q0 100 -22.5 195t-71 181t-118.5 150.5t-172 103t-224 38.5q-182 0 -348.5 -79t-285.5 -208.5t-190 -302.5t-71 -356q0 -153 49 -289t134.5 -235t206.5 -157t259 -58q65 0 131 12 t114 29t86.5 34t58.5 29l20 12l33 -104q-7 -5 -20.5 -13.5t-59.5 -30.5t-95.5 -39t-127 -30.5t-156.5 -13.5q-171 0 -314.5 67.5t-238.5 182t-148 266t-53 319.5q0 140 36 277t101.5 256t160.5 220.5t207.5 174t248.5 113.5t279 41q161 0 298.5 -60.5t231.5 -164.5 t146.5 -244.5t52.5 -298.5q0 -181 -66 -332.5t-174 -236.5t-231 -85zM901 238q92 0 176.5 60.5t135.5 161.5t51 212q0 106 -54.5 165.5t-142.5 59.5q-62 0 -124 -32.5t-112.5 -88t-82 -138t-31.5 -175.5q0 -107 48.5 -166t135.5 -59z" />
<glyph unicode="A" d="M793 1229l311 -1229h-148l-65 272h-590l-143 -272h-146l654 1229h127zM705 1044l-334 -638h487z" />
<glyph unicode="B" horiz-adv-x="1128" d="M1098 383q0 -187 -123.5 -285t-327.5 -98h-497l172 1229h477q164 0 254 -72.5t90 -210.5q0 -119 -57 -200.5t-154 -116.5v-6q77 -25 121.5 -87t44.5 -153zM727 555h-356l-60 -422h359q121 0 200.5 62.5t79.5 179.5q0 86 -62 133t-161 47zM993 926q0 170 -215 170h-332 l-57 -408h332q121 0 196.5 64.5t75.5 173.5z" />
<glyph unicode="C" horiz-adv-x="1050" d="M954 240l68 -111l-17 -17t-49 -38t-80 -48t-109 -38t-138 -17q-145 0 -254.5 72.5t-166 196t-56.5 278.5q0 150 50.5 286t137.5 235t209.5 157.5t259.5 58.5q71 0 132.5 -16t99.5 -39.5t65.5 -46.5t39.5 -39l11 -16l-96 -111q-4 5 -11 14t-32.5 32t-54 40.5t-75 32 t-95.5 14.5q-134 0 -248 -80.5t-179 -214.5t-65 -288q0 -184 95 -307.5t253 -123.5q49 0 98.5 14t85 33.5t64 39t43.5 33.5z" />
<glyph unicode="D" horiz-adv-x="1175" d="M1192 713q0 -158 -49.5 -291.5t-137 -226t-210 -144t-265.5 -51.5h-380l172 1229h380q228 0 359 -139.5t131 -376.5zM676 1096h-230l-135 -963h230q102 0 194 39.5t161 110t110 177t41 232.5q0 188 -102 296t-269 108z" />
<glyph unicode="E" horiz-adv-x="1015" d="M940 688l-18 -133h-551l-60 -422h647l-18 -133h-790l172 1229h790l-18 -133h-648l-57 -408h551z" />
<glyph unicode="F" horiz-adv-x="993" d="M940 688l-18 -133h-551l-78 -555h-143l172 1229h790l-18 -133h-648l-57 -408h551z" />
<glyph unicode="G" horiz-adv-x="1187" d="M678 539l18 133h527l-13 -86q-40 -283 -196 -449t-391 -166q-147 0 -254.5 72t-161 193.5t-53.5 275.5q0 203 84.5 373t235.5 270t337 100q76 0 142.5 -16.5t107 -40.5t70 -47.5t41.5 -40.5l12 -16l-99 -109q-4 5 -11.5 14.5t-34 32.5t-57.5 41t-82 32.5t-107 14.5 q-104 0 -196 -48.5t-156 -129t-101 -188.5t-37 -224q0 -184 90 -304t250 -120q159 0 273.5 115t142.5 303l2 15h-383z" />
<glyph unicode="H" horiz-adv-x="1202" d="M1225 1229l-172 -1229h-144l76 539h-616l-76 -539h-143l172 1229h143l-78 -557h617l77 557h144z" />
<glyph unicode="I" horiz-adv-x="442" d="M465 1229l-172 -1229h-143l172 1229h143z" />
<glyph unicode="J" horiz-adv-x="806" d="M43 72l82 108q3 -3 8.5 -7.5t24.5 -17t39 -22t50.5 -17t61.5 -7.5q116 0 184 74t91 237l114 809h142l-117 -836q-29 -206 -136 -314t-286 -108q-157 0 -258 101z" />
<glyph unicode="K" horiz-adv-x="1064" d="M465 1229l-92 -662l663 662h166l-2 -25l-491 -483l333 -696l-4 -25h-151q-203 426 -293 608l-250 -248l-51 -360h-143l172 1229h143z" />
<glyph unicode="L" horiz-adv-x="913" d="M866 0h-716l172 1229h143l-154 -1096h574z" />
<glyph unicode="M" horiz-adv-x="1347" d="M1057 0l133 948l-434 -512h-39l-293 502l-131 -938h-143l172 1229h96l344 -602l514 602h94l-172 -1229h-141z" />
<glyph unicode="N" horiz-adv-x="1239" d="M1262 1229l-172 -1229h-99l-565 961l-133 -961h-143l172 1229h100l561 -957l135 957h144z" />
<glyph unicode="O" horiz-adv-x="1261" d="M625 -29q-218 0 -344.5 154t-126.5 391q0 150 49.5 286t135 236t207 158.5t259.5 58.5q221 0 348 -152.5t127 -391.5q0 -201 -83 -369.5t-234 -269.5t-338 -101zM645 109q138 0 251.5 81t176 214t62.5 288q0 185 -94 306.5t-255 121.5q-102 0 -192.5 -48.5t-154 -129 t-100 -187.5t-36.5 -223q0 -183 91.5 -303t250.5 -120z" />
<glyph unicode="P" horiz-adv-x="1079" d="M150 0l172 1229h446q179 0 277 -89t98 -255q0 -232 -137 -362t-363 -130h-295l-55 -393h-143zM995 862q0 116 -66 175t-184 59h-299l-79 -570h299q156 0 242.5 83.5t86.5 252.5z" />
<glyph unicode="Q" horiz-adv-x="1261" d="M625 -29q-145 0 -253 72.5t-163 195t-55 277.5q0 150 49.5 286t135 236t207 158.5t259.5 58.5q221 0 348 -152.5t127 -391.5q0 -217 -100.5 -396.5t-272.5 -273.5l129 -291h-164l-106 240q-71 -19 -141 -19zM645 109q138 0 251.5 81t176 214t62.5 288q0 185 -94 306.5 t-255 121.5q-102 0 -192.5 -48.5t-154 -129t-100 -187.5t-36.5 -223q0 -183 91.5 -303t250.5 -120z" />
<glyph unicode="R" horiz-adv-x="1118" d="M322 1229h444q181 0 279 -88.5t98 -255.5q0 -169 -83 -284.5t-222 -164.5l-2 -8l217 -393l-4 -35h-150l-229 408h-320l-57 -408h-143zM993 864q0 115 -65 173.5t-183 58.5h-299l-77 -555h311q141 0 227 82.5t86 240.5z" />
<glyph unicode="S" horiz-adv-x="950" d="M92 117l92 108q4 -5 11.5 -13t35 -28.5t59 -36t84.5 -28.5t111 -13q150 0 224.5 66.5t74.5 177.5q0 71 -54.5 118t-201.5 97q-174 58 -249.5 129.5t-75.5 184.5q0 171 122.5 273.5t327.5 102.5q73 0 136.5 -12.5t102 -30t66.5 -35t39 -29.5l11 -13l-95 -119q-3 4 -10 11 t-32 25t-54 32t-78 25t-104 11q-125 0 -204 -58t-79 -161q0 -64 56 -108t204 -93q179 -58 251.5 -133.5t72.5 -189.5q0 -179 -124.5 -292.5t-342.5 -113.5q-77 0 -144 15t-108 36.5t-70.5 43t-42.5 36.5z" />
<glyph unicode="T" horiz-adv-x="972" d="M201 1096l18 133h879l-19 -133h-368l-154 -1096h-143l153 1096h-366z" />
<glyph unicode="U" horiz-adv-x="1175" d="M584 -29q-211 0 -311 149t-66 394l100 715h144l-101 -715q-26 -184 38 -296t214 -112q152 0 246.5 112t120.5 296l100 715h143l-100 -715q-34 -246 -174.5 -394.5t-353.5 -148.5z" />
<glyph unicode="V" d="M494 0l-310 1229h146l250 -1045l548 1045h148l-655 -1229h-127z" />
<glyph unicode="W" horiz-adv-x="1511" d="M993 0l-96 1008l-379 -1008h-110l-209 1229h147l135 -1010l377 1010h139l93 -1010l419 1010h148l-553 -1229h-111z" />
<glyph unicode="X" horiz-adv-x="989" d="M1126 1229l-438 -598l279 -631h-170l-199 459l-29 84l-55 -84l-319 -459h-170l452 631l-268 598h172l190 -441l25 -75l49 75l311 441h170z" />
<glyph unicode="Y" horiz-adv-x="985" d="M627 680l354 549h164l-516 -756l-66 -473h-143l65 477l-303 752h168l203 -549l25 -78h2z" />
<glyph unicode="Z" horiz-adv-x="976" d="M901 0h-846l13 96l819 1000h-654l19 133h835l-14 -96l-803 -1000h650z" />
<glyph unicode="[" horiz-adv-x="612" d="M80 -266l239 1700h465l-18 -119h-326l-204 -1462h325l-16 -119h-465z" />
<glyph unicode="\" horiz-adv-x="671" d="M428 -262l-137 1896h145l135 -1896h-143z" />
<glyph unicode="]" horiz-adv-x="612" d="M-6 -266l16 119h324l205 1462h-324l18 119h463l-239 -1700h-463z" />
<glyph unicode="^" horiz-adv-x="827" d="M756 1018l-160 295l-242 -295h-123l336 401h92l226 -401h-129z" />
<glyph unicode="_" horiz-adv-x="1032" d="M76 -201l16 119h823l-16 -119h-823z" />
<glyph unicode="`" horiz-adv-x="530" d="M414 1018l-125 270l174 27l53 -297h-102z" />
<glyph unicode="a" horiz-adv-x="976" d="M829 723h7l41 137h98l-121 -860h-98l-2 137h-6q-4 -6 -11.5 -17t-35.5 -38t-61 -47.5t-88 -37.5t-116 -17q-138 0 -224.5 103.5t-86.5 272.5q0 112 35.5 211t95 167t138 107.5t163.5 39.5q62 0 113 -16.5t79.5 -39.5t47.5 -46t25 -39zM788 489q0 126 -60 199.5t-155 73.5 q-123 0 -213 -111.5t-90 -275.5q0 -122 58 -199.5t151 -77.5q126 0 217.5 108t91.5 283z" />
<glyph unicode="b" horiz-adv-x="972" d="M121 0l174 1239h141l-71 -508h6q3 6 10 16t32 36t55.5 46t83 36t112.5 16q134 0 219.5 -105t85.5 -274q0 -113 -35.5 -211.5t-95.5 -166t-139 -106t-164 -38.5q-63 0 -114 17.5t-78.5 42.5t-46 50t-24.5 42l-6 18h-6l-37 -150h-102zM309 373q0 -126 60.5 -200.5 t154.5 -74.5q122 0 210.5 112t88.5 277q0 123 -57.5 199t-149.5 76q-124 0 -215.5 -108t-91.5 -281z" />
<glyph unicode="c" horiz-adv-x="761" d="M457 -20q-153 0 -242.5 103t-89.5 273q0 226 131.5 375.5t327.5 149.5q50 0 92 -8t66 -19t41 -22t23 -19l7 -8l-57 -107q-3 3 -8 7t-22.5 15t-37 19.5t-50.5 15.5t-63 7q-128 0 -217.5 -108.5t-89.5 -288.5q0 -127 58.5 -197t154.5 -70q51 0 101 16t74 32l24 16l25 -107 q-3 -3 -9 -8t-28 -18t-48 -23t-70 -18t-93 -8z" />
<glyph unicode="d" horiz-adv-x="974" d="M811 745h6l70 494h141l-174 -1239h-98l-2 137h-6q-4 -6 -11.5 -17t-35.5 -38t-61 -47.5t-88 -37.5t-116 -17q-138 0 -224.5 103.5t-86.5 272.5q0 112 35.5 211t95.5 167t139 107.5t164 39.5q58 0 105.5 -14t73.5 -34t43.5 -40t23.5 -34zM788 489q0 126 -60 199.5 t-155 73.5q-123 0 -213 -111.5t-90 -275.5q0 -122 58 -199.5t151 -77.5q126 0 217.5 108t91.5 283z" />
<glyph unicode="e" horiz-adv-x="849" d="M721 180l39 -102q-4 -4 -11.5 -11t-34.5 -24.5t-58 -30.5t-82 -24t-107 -11q-161 0 -251.5 102.5t-90.5 272.5q0 147 55 267.5t156 191t227 70.5q111 0 182.5 -57.5t97 -153t9.5 -217.5l-4 -35h-576q-21 -153 42 -236.5t180 -83.5q63 0 119.5 20.5t82.5 41.5zM545 760 q-185 0 -252 -228h424q6 228 -172 228z" />
<glyph unicode="f" horiz-adv-x="575" d="M653 745h-225l-104 -745h-142l105 745h-144l17 115h143l14 107q19 134 100 211t206 77q49 0 90.5 -10.5t58.5 -20.5l16 -10l-59 -114q-53 30 -121 30q-59 0 -99 -42t-50 -119l-15 -109h226z" />
<glyph unicode="g" horiz-adv-x="972" d="M870 860h103l-113 -803q-27 -191 -142 -307.5t-296 -116.5q-65 0 -119.5 14t-86 33.5t-54 39t-30.5 33.5l-9 14l92 96q3 -4 8 -11.5t24.5 -26.5t42.5 -33t62 -26t82 -12q121 0 195.5 77t91.5 222l10 94q-103 -129 -293 -129q-137 0 -224 102.5t-87 264.5 q0 107 35.5 200.5t95.5 157.5t139.5 101t165.5 37q62 0 112.5 -16.5t77.5 -40t45 -47t24 -39.5l5 -17v-8h4zM485 135q125 0 216.5 102.5t91.5 266.5q0 120 -61 189t-159 69q-123 0 -212 -103.5t-89 -259.5q0 -118 59 -191t154 -73z" />
<glyph unicode="h" horiz-adv-x="950" d="M121 0l174 1239h141l-65 -463h6q111 105 258 105q151 0 222 -109t46 -287l-67 -485h-142l66 467q19 130 -25 212.5t-145 82.5q-52 0 -98 -23t-77 -60t-51 -77t-28 -80l-74 -522h-141z" />
<glyph unicode="i" horiz-adv-x="393" d="M342 1049q-35 0 -58.5 23.5t-23.5 60.5q0 42 33.5 74t75.5 32q36 0 59 -24t23 -60q0 -44 -33 -75t-76 -31zM125 0l121 860h141l-121 -860h-141z" />
<glyph unicode="j" horiz-adv-x="393" d="M-31 -319l17 118h14q48 0 76.5 30.5t36.5 82.5l133 948h139l-133 -954q-33 -225 -236 -225h-47zM342 1049q-35 0 -58.5 23.5t-23.5 60.5q0 42 33.5 74t75.5 32q36 0 59 -24t23 -60q0 -44 -33 -75t-76 -31z" />
<glyph unicode="k" horiz-adv-x="825" d="M741 860h187l-410 -371l287 -489h-174l-225 391l-101 -90l-43 -301h-141l174 1239h141l-106 -758h6z" />
<glyph unicode="l" horiz-adv-x="395" d="M127 0l174 1239h141l-174 -1239h-141z" />
<glyph unicode="m" horiz-adv-x="1507" d="M121 0l121 860h100l-6 -127h10q65 78 130 113t153 35q96 0 163 -43.5t95 -120.5h6q127 164 305 164q151 0 220 -108.5t44 -287.5l-67 -485h-142l66 469q18 130 -24.5 211.5t-143.5 81.5q-103 0 -172 -74t-76 -162v-6l-74 -520h-141l72 504q16 114 -30.5 186t-147.5 72 q-100 0 -165 -74.5t-81 -163.5l-74 -524h-141z" />
<glyph unicode="n" horiz-adv-x="952" d="M121 0l121 860h100l-6 -127h10q119 148 291 148q153 0 225 -101.5t47 -277.5l-69 -502h-144l68 485q18 127 -27 202t-147 75q-52 0 -98 -23t-77 -59t-51 -76t-28 -80l-74 -524h-141z" />
<glyph unicode="o" horiz-adv-x="933" d="M928 494q0 -113 -39 -211t-104 -163.5t-149 -102.5t-175 -37q-150 0 -244 102.5t-94 275.5q0 113 38.5 211.5t102.5 166t148.5 106.5t175.5 39q148 0 244 -107t96 -280zM477 94q124 0 216.5 109t92.5 282q0 127 -60.5 204t-154.5 77q-123 0 -215 -111t-92 -284 q0 -127 59.5 -202t153.5 -75z" />
<glyph unicode="p" horiz-adv-x="972" d="M285 115h-6l-62 -434h-141l166 1179h100l-2 -127h14q4 6 12 16t36 35.5t60.5 45t85.5 35.5t111 16q137 0 223.5 -104t86.5 -273q0 -112 -36 -211t-95.5 -167t-137.5 -107t-161 -39q-60 0 -108 14t-74 33.5t-43.5 39.5t-23.5 34zM309 373q0 -126 60.5 -200.5t154.5 -74.5 q122 0 210.5 111.5t88.5 277.5q0 122 -57 198.5t-150 76.5q-124 0 -215.5 -108t-91.5 -281z" />
<glyph unicode="q" horiz-adv-x="974" d="M975 860l-166 -1179h-141l61 448h-6q-3 -6 -9.5 -16t-31.5 -36t-55.5 -45.5t-82.5 -35.5t-112 -16q-135 0 -221 105t-86 273q0 150 61.5 271t161 186.5t215.5 65.5q62 0 111.5 -17.5t76 -42t44 -49t23.5 -42.5l5 -17h8l41 147h103zM788 489q0 126 -60 199.5t-155 73.5 q-122 0 -212.5 -112t-90.5 -275q0 -123 57.5 -200t151.5 -77q126 0 217.5 108t91.5 283z" />
<glyph unicode="r" horiz-adv-x="536" d="M635 862l-17 -114h-45q-79 0 -148.5 -66.5t-88.5 -163.5l-74 -518h-141l121 860h100l-8 -151h8q40 71 108 112t138 41h47z" />
<glyph unicode="s" horiz-adv-x="765" d="M82 86l78 98q4 -3 11.5 -9t32.5 -20.5t53 -25.5t71 -20t88 -9q98 0 142 38.5t44 101.5q0 46 -45.5 76.5t-111 50.5t-131 44t-111 73.5t-45.5 123.5q0 117 84 195t243 78q90 0 167 -17.5t109 -35.5l32 -17l-76 -121q-10 8 -29 19.5t-80.5 31t-126.5 19.5q-190 0 -190 -129 q0 -37 33 -63.5t82.5 -40t107.5 -33.5t107.5 -43.5t82.5 -71t33 -113.5q0 -44 -11.5 -84.5t-37.5 -77.5t-65 -64.5t-97.5 -43.5t-130.5 -16q-64 0 -119.5 11t-89.5 26.5t-59 31t-35 26.5z" />
<glyph unicode="t" horiz-adv-x="608" d="M150 860h145l37 262h141l-37 -262h232l-17 -115h-231l-72 -505q-19 -140 92 -140q24 0 54.5 10t48.5 20l18 9l33 -102q-9 -6 -25 -15.5t-64.5 -25.5t-94.5 -16q-121 0 -171 68.5t-32 193.5l72 503h-146z" />
<glyph unicode="u" horiz-adv-x="946" d="M946 860l-121 -860h-90l-8 123h-6q-44 -62 -117.5 -102.5t-177.5 -40.5q-149 0 -220.5 91t-47.5 263l75 526h142l-72 -510q-36 -252 170 -252q102 0 173 75t83 161l76 526h141z" />
<glyph unicode="v" horiz-adv-x="851" d="M952 860l-477 -860h-98l-238 860h158l141 -637q10 -30 6 -57h9q3 23 22 57l322 637h155z" />
<glyph unicode="w" horiz-adv-x="1218" d="M319 0l-169 860h147l88 -637q7 -33 4 -57h17q1 8 10 30.5t10 26.5l250 637h117l69 -637q7 -21 2 -57h17q3 18 20 57l273 637h137l-412 -860h-121l-65 635q-7 27 -4 55h-9q-3 -29 -16 -55l-246 -635h-119z" />
<glyph unicode="x" horiz-adv-x="813" d="M27 0l360 449l-221 411h164l151 -321h4l244 321h162l-338 -411l235 -449h-163l-164 358h-4l-271 -358h-159z" />
<glyph unicode="y" horiz-adv-x="942" d="M733 389l66 471h141l-117 -837q-26 -177 -132 -283.5t-279 -106.5q-65 0 -119.5 14t-86.5 33.5t-55 39t-31 33.5l-9 14l92 96q3 -4 8.5 -11.5t25 -26.5t43 -33t62.5 -26t82 -12q109 0 173 68t83 196l16 111q-111 -111 -252 -111q-162 0 -233.5 108t-46.5 288l63 446h144 l-62 -430q-18 -131 22.5 -212t141.5 -81q55 0 103.5 25t80 64t51 81t25.5 82z" />
<glyph unicode="z" horiz-adv-x="786" d="M721 0h-655l8 72l569 671h-471l16 117h654l-11 -65l-552 -678h458z" />
<glyph unicode="{" horiz-adv-x="524" d="M115 649h51q62 0 102.5 51t53.5 150l51 354q35 237 270 260l6 -121q-61 -9 -90 -41.5t-41 -113.5l-47 -348q-28 -199 -152 -246l-4 -19q54 -21 75 -83.5t9 -155.5l-49 -354q-10 -78 9.5 -112t76.5 -42l-39 -119q-117 9 -167 74t-33 182l51 359q14 98 -11.5 150t-86.5 52 h-52z" />
<glyph unicode="|" horiz-adv-x="366" d="M449 1407l-236 -1669h-133l235 1669h134z" />
<glyph unicode="}" horiz-adv-x="524" d="M539 649h51l-17 -123h-51q-62 0 -102 -52t-53 -150l-52 -359q-36 -239 -270 -256l-6 119q60 8 90.5 42t40.5 112l49 354q12 92 50.5 155t99.5 84l4 19q-112 47 -84 246l49 348q12 80 -8 113t-78 42l39 121q233 -24 198 -260l-49 -354q-27 -201 99 -201z" />
<glyph unicode="~" horiz-adv-x="907" d="M680 641q38 0 79 12.5t63 25.5l22 13l37 -86q-10 -9 -29 -22t-75 -34.5t-111 -21.5q-54 0 -128.5 33t-136.5 33q-37 0 -78.5 -13t-64.5 -25l-22 -13l-33 86q4 3 11 8.5t29 19t45.5 23.5t58 18.5t67.5 8.5q56 0 130 -33t136 -33z" />
<glyph unicode="&#xa1;" horiz-adv-x="374" d="M309 524l-88 -886h-176l164 886h100zM201 768q0 47 32 81t76 34q38 0 62 -25.5t24 -64.5q0 -45 -33.5 -79t-78.5 -34q-36 0 -59 25.5t-23 62.5z" />
<glyph unicode="&#xa2;" horiz-adv-x="796" d="M330 0l45 178q-101 35 -159 131.5t-58 229.5q0 219 129 366t319 156l45 168h103l-47 -176q44 -8 81.5 -25t52.5 -30l15 -13l-57 -106q-47 43 -123 57l-170 -657h18q51 0 101 15.5t74 31.5l24 16l22 -106q-4 -3 -10.5 -8t-30.5 -18.5t-50.5 -23.5t-68 -18t-85.5 -8h-25 l-41 -160h-104zM303 553q0 -85 28.5 -149t78.5 -95l165 629q-115 -23 -193.5 -127t-78.5 -258z" />
<glyph unicode="&#xa3;" horiz-adv-x="921" d="M842 133l-19 -133h-696l18 133v2q6 2 15.5 7t34 24.5t43 45t34 71t15.5 100.5q0 35 -17 160h-116l16 114h86q-4 58 -4 109q0 96 32.5 182t91 151.5t147.5 104.5t196 39q60 0 112 -13t82.5 -31.5t53 -37.5t31.5 -32l8 -13l-101 -106q-2 4 -7 10.5t-23.5 23t-40 29 t-57.5 23t-77 10.5q-139 0 -214.5 -96t-75.5 -246q0 -49 4 -107h395l-16 -114h-365q12 -94 12 -142q0 -152 -108 -268h510z" />
<glyph unicode="&#xa5;" horiz-adv-x="1075" d="M672 680l354 549h164l-440 -645h249l-16 -115h-311l-25 -178h311l-16 -115h-309l-25 -176h-143l24 176h-307l17 115h305l24 178h-305l17 115h247l-260 645h168l203 -549l25 -78h2z" />
<glyph unicode="&#xa6;" horiz-adv-x="387" d="M352 676h-131l98 702h132zM213 -313h-131l98 702h131z" />
<glyph unicode="&#xa7;" horiz-adv-x="952" d="M82 92l96 117q5 -4 14 -11t39.5 -24t63.5 -30t85.5 -24t106.5 -11q263 0 263 143q0 37 -27.5 64.5t-62.5 43.5t-126 51q-12 5 -18 7q-125 43 -192.5 97t-67.5 128q0 57 28.5 94t63.5 56q-112 69 -112 178q0 124 110.5 204t319.5 80q71 0 133 -9.5t100 -23.5t65.5 -28 t38.5 -24l11 -9l-96 -119q-3 3 -10 9t-31.5 20.5t-53 25.5t-76 20t-100.5 9q-246 0 -246 -141q0 -54 46 -86.5t147 -64.5q297 -95 297 -242q0 -90 -88 -160q112 -70 112 -176q0 -116 -113 -199.5t-329 -83.5q-77 0 -145.5 12.5t-111.5 30t-75 34.5t-45 30zM528 719 q-62 18 -75 24q-54 -27 -54 -81q0 -36 45 -66.5t140 -63.5q31 -10 112 -43q47 35 47 86q0 41 -53 74.5t-162 69.5z" />
<glyph unicode="&#xa8;" horiz-adv-x="866" d="M395 1454q0 41 33 74t72 33q32 0 55 -25.5t23 -60.5q0 -41 -33 -74t-72 -33q-32 0 -55 25.5t-23 60.5zM705 1454q0 41 33 74t73 33q32 0 55 -25.5t23 -60.5q0 -41 -33 -74t-72 -33q-33 0 -56 25t-23 61z" />
<glyph unicode="&#xa9;" horiz-adv-x="1280" d="M815 1239q151 0 260.5 -72t163 -191t53.5 -269q0 -114 -30 -221.5t-87.5 -197.5t-136 -157t-181.5 -105t-218 -38q-112 0 -203.5 41.5t-151.5 114t-92 169.5t-32 209q0 191 82 354.5t233.5 263t339.5 99.5zM803 1153q-160 0 -287.5 -86t-196.5 -228t-69 -309 q0 -197 106.5 -326.5t294.5 -129.5q159 0 287 86.5t197 227.5t69 306q0 130 -45 232.5t-137.5 164.5t-218.5 62zM961 868l-62 -77q-5 7 -14 16.5t-41.5 26t-69.5 16.5q-102 0 -166.5 -80t-64.5 -195q0 -86 43.5 -140t122.5 -54q38 0 73.5 14.5t51.5 29.5l16 15l41 -78l-8 -8 t-24 -18t-40.5 -23t-55.5 -18t-71 -8q-135 0 -202 93.5t-46 233.5q21 142 113.5 236t226.5 94q37 0 68.5 -8t50.5 -19t33 -22t20 -19z" />
<glyph unicode="&#xaa;" horiz-adv-x="743" d="M174 735q0 108 78.5 173t208.5 65q132 0 178 -62l4 27q16 114 -9 165.5t-122 51.5q-25 0 -51 -4.5t-48 -11t-38.5 -13t-30 -12.5t-14.5 -6l-23 96q14 6 37.5 15t87 23.5t115.5 14.5q146 0 193 -82t24 -241l-53 -373h-86l-9 78h-6q-67 -94 -229 -94q-93 0 -150 52.5 t-57 137.5zM293 743q0 -51 34.5 -80.5t96.5 -29.5q73 0 129 37t65 88l3 10q9 54 -34 86.5t-116 32.5q-84 0 -131 -38t-47 -106z" />
<glyph unicode="&#xab;" horiz-adv-x="864" d="M133 403l6 48l285 385h121l-4 -21l-275 -381l-2 -10l168 -387l-4 -21h-121zM496 403l6 48l282 385h121l-4 -21l-276 -381l-2 -10l170 -387l-5 -21h-120z" />
<glyph unicode="&#xac;" horiz-adv-x="1009" d="M168 590l16 119h805l-98 -709h-121l82 590h-684z" />
<glyph unicode="&#xad;" horiz-adv-x="741" d="M166 410l16 118h525l-17 -118h-524z" />
<glyph unicode="&#xae;" horiz-adv-x="1019" d="M1044 848q0 -108 -36.5 -207.5t-100 -174.5t-157 -120t-201.5 -45q-167 0 -261.5 116.5t-94.5 291.5q0 145 60.5 269t174.5 200.5t256 76.5q169 0 264.5 -115.5t95.5 -291.5zM954 838q0 145 -75.5 237t-206.5 92q-166 0 -277.5 -128t-111.5 -320q0 -144 75 -237t203 -93 q167 0 280 130.5t113 318.5zM492 993h172q63 0 101 -34t38 -91q0 -98 -96 -145v-2l61 -123l-4 -18h-74l-59 125h-109l-18 -125h-72zM653 922h-100l-21 -148h99q41 0 67.5 22.5t26.5 63.5q0 62 -72 62z" />
<glyph unicode="&#xaf;" horiz-adv-x="991" d="M416 1368l12 94h565l-12 -94h-565z" />
<glyph unicode="&#xb0;" horiz-adv-x="555" d="M469 1376q83 0 132.5 -54t49.5 -136q0 -104 -70 -177t-173 -73q-83 0 -132 53.5t-49 136.5q0 102 70 176t172 74zM459 1296q-61 0 -103.5 -47.5t-42.5 -111.5q0 -52 29 -85.5t78 -33.5q62 0 102.5 46.5t40.5 111.5q0 53 -27.5 86.5t-76.5 33.5z" />
<glyph unicode="&#xb1;" horiz-adv-x="966" d="M596 346h-119l49 352h-315l16 119h316l51 361h119l-51 -361h309l-17 -119h-309zM885 201l-17 -119h-743l16 119h744z" />
<glyph unicode="&#xb2;" horiz-adv-x="641" d="M195 700l12 91l299 251q46 38 65 73.5t19 82.5q0 96 -101 96q-38 0 -81 -19.5t-62 -33.5t-27 -22l-43 77q11 10 30.5 25t79.5 40t118 25q98 0 145 -49t47 -127q0 -79 -26.5 -128.5t-85.5 -96.5l-234 -194h301l-12 -91h-444z" />
<glyph unicode="&#xb3;" horiz-adv-x="622" d="M276 1278l13 90h420l-9 -68l-168 -198q70 -9 106 -51.5t36 -112.5q0 -107 -73 -180.5t-202 -73.5q-37 0 -72.5 9t-59 21.5t-43.5 27.5t-28.5 23t-11.5 13l66 74q1 -2 8 -9.5t21.5 -19.5t32.5 -22.5t44.5 -18.5t53.5 -8q75 0 118 44t43 106q0 45 -26.5 71t-75.5 29h-76 l8 66l156 188h-281z" />
<glyph unicode="&#xb4;" horiz-adv-x="530" d="M561 1288l-205 -270h-102l139 297z" />
<glyph unicode="&#xb5;" horiz-adv-x="937" d="M215 -262h-139l76 543q1 8 6 53l75 526h142l-72 -510q-36 -252 170 -252q102 0 173 75t83 161l76 526h141l-121 -860h-90l-8 123h-6q-44 -62 -117.5 -102.5t-177.5 -40.5t-174 45z" />
<glyph unicode="&#xb6;" horiz-adv-x="983" d="M688 -168l60 418h-107q-218 0 -350.5 111t-132.5 317q0 133 47 239t130.5 174t194.5 104t242 36h254l-197 -1399h-141z" />
<glyph unicode="&#xb7;" horiz-adv-x="391" d="M203 723q0 47 33 81t75 34q36 0 60 -25.5t24 -62.5q0 -47 -32 -81t-78 -34q-35 0 -58.5 25.5t-23.5 62.5z" />
<glyph unicode="&#xb8;" horiz-adv-x="382" d="M123 -129l-21 33l60 102h78l-37 -69q44 -2 72 -30.5t28 -80.5q0 -72 -46.5 -118t-121.5 -46q-42 0 -74 14t-43 28l-12 15l47 58q3 -5 10 -11.5t30 -18t48 -11.5q40 0 63 22t23 60q0 26 -17 40.5t-48 14.5z" />
<glyph unicode="&#xb9;" horiz-adv-x="389" d="M227 1278l13 90h225l-94 -668h-101l82 578h-125z" />
<glyph unicode="&#xba;" horiz-adv-x="759" d="M555 1255q120 0 192 -80.5t72 -218.5q0 -179 -104.5 -292t-259.5 -113q-119 0 -190.5 81t-71.5 214q0 181 104.5 295t257.5 114zM541 1151q-98 0 -164 -82.5t-66 -210.5q0 -92 43.5 -147.5t116.5 -55.5q100 0 164.5 82t64.5 211q0 93 -42.5 148t-116.5 55z" />
<glyph unicode="&#xbb;" horiz-adv-x="862" d="M492 451l-7 -48l-282 -387h-125l2 21l278 387l2 10l-170 381l3 21h124zM852 451l-6 -48l-285 -387h-125l2 21l281 387l2 10l-172 381l2 21h125z" />
<glyph unicode="&#xbc;" horiz-adv-x="1161" d="M178 0h-121l1037 1229h125zM236 1139l12 90h227l-94 -668h-100l81 578h-126zM606 180l8 64l387 424h78l-55 -402h111l-13 -86h-110l-25 -180h-98l24 180h-307zM805 330q-57 -61 -68 -70l82 6h107l26 189l9 57z" />
<glyph unicode="&#xbd;" horiz-adv-x="1273" d="M180 0h-121l1035 1229h125zM774 90l-12 -90h444l13 90h-301l233 195q60 47 86.5 96.5t26.5 128.5q0 78 -47.5 127t-145.5 49q-58 0 -115 -22.5t-84 -45.5l-28 -22l43 -78q8 8 27 22.5t62 34t81 19.5q100 0 100 -96q0 -47 -19 -82.5t-65 -73.5zM242 1139l12 90h225 l-92 -668h-100l80 578h-125z" />
<glyph unicode="&#xbe;" horiz-adv-x="1318" d="M762 180l8 64l387 424h78l-55 -402h110l-12 -86h-111l-24 -180h-99l25 180h-307zM350 0h-121l1037 1229h125zM248 1139l12 90h418l-10 -68l-164 -198q79 -10 114 -61t23 -138q-13 -95 -84 -157t-188 -62q-32 0 -62.5 6.5t-51.5 16t-41.5 22t-31 21.5t-20.5 19l-10 9 l69 76q2 -3 6.5 -8.5t20 -19.5t32.5 -24.5t44 -19t55 -8.5q67 0 109.5 37.5t50.5 93.5q8 53 -18.5 84.5t-82.5 34.5h-76l11 65l153 189h-278zM961 330q-57 -61 -68 -70l82 6h106l27 189l8 57z" />
<glyph unicode="&#xbf;" horiz-adv-x="765" d="M641 -156l41 -118q-5 -4 -14.5 -11.5t-41.5 -26.5t-66 -33t-85.5 -26t-103.5 -12q-151 0 -236.5 74t-85.5 203q0 68 18.5 126t49.5 98.5t68.5 76t77.5 66.5t74.5 61.5t61.5 69.5t37 83l13 55h98l-10 -79q-7 -56 -35.5 -108t-65.5 -88.5t-78.5 -76.5t-76 -74.5 t-57.5 -81.5t-23 -98q0 -77 50 -124.5t138 -47.5q40 0 80.5 9.5t70 23t53.5 27t36 22.5zM625 801q0 -47 -34 -81t-77 -34q-36 0 -60 25.5t-24 62.5q0 46 34.5 80.5t78.5 34.5q36 0 59 -25.5t23 -62.5z" />
<glyph unicode="&#xc0;" d="M793 1229l311 -1229h-148l-65 272h-590l-143 -272h-146l654 1229h127zM705 1044l-334 -638h487zM684 1300l-125 271l174 26l53 -297h-102z" />
<glyph unicode="&#xc1;" d="M793 1229l311 -1229h-148l-65 272h-590l-143 -272h-146l654 1229h127zM705 1044l-334 -638h487zM997 1571l-204 -271h-103l139 297z" />
<glyph unicode="&#xc2;" d="M793 1229l311 -1229h-148l-65 272h-590l-143 -272h-146l654 1229h127zM705 1044l-334 -638h487zM846 1368l-78 125l-119 -125h-131l203 221h113l143 -221h-131z" />
<glyph unicode="&#xc3;" d="M793 1229l311 -1229h-148l-65 272h-590l-143 -272h-146l654 1229h127zM705 1044l-334 -638h487zM897 1368q-40 0 -79 19t-64 41.5t-56.5 41.5t-58.5 19q-39 0 -61.5 -24t-38.5 -66l-13 -33l-98 12l18 54q60 170 193 170q39 0 77 -19t63.5 -42.5t57.5 -42.5t60 -19 q41 0 63.5 24.5t36.5 67.5l11 31l100 -11l-16 -51q-24 -76 -72.5 -124t-122.5 -48z" />
<glyph unicode="&#xc4;" d="M793 1229l311 -1229h-148l-65 272h-590l-143 -272h-146l654 1229h127zM705 1044l-334 -638h487zM514 1454q0 41 32.5 74t71.5 33q32 0 55 -25.5t23 -60.5q0 -41 -32.5 -74t-71.5 -33q-32 0 -55 25.5t-23 60.5zM823 1454q0 41 33.5 74t73.5 33q32 0 55 -25.5t23 -60.5 q0 -41 -33 -74t-72 -33q-34 0 -57 25.5t-23 60.5z" />
<glyph unicode="&#xc5;" d="M793 1229l311 -1229h-148l-65 272h-590l-143 -272h-146l654 1229h127zM705 1044l-334 -638h487zM561 1438q10 79 73 128.5t150 49.5q84 0 133 -49.5t39 -128.5q-12 -79 -75.5 -128.5t-147.5 -49.5q-87 0 -135.5 49.5t-36.5 128.5zM860 1438q6 42 -17 65t-71 23t-79.5 -23 t-37.5 -65t19.5 -65t73.5 -23t77 22.5t35 65.5z" />
<glyph unicode="&#xc6;" horiz-adv-x="1638" d="M-12 0l938 1229h809l-19 -133h-647l-57 -408h551l-19 -133h-551l-59 -422h647l-18 -133h-791l39 272h-446l-199 -272h-178zM901 1004l-438 -598h366l84 598h-12z" />
<glyph unicode="&#xc7;" horiz-adv-x="1050" d="M530 -129l-20 33l43 73q-186 27 -293.5 176t-107.5 365q0 150 50.5 286t137.5 235t209.5 157.5t259.5 58.5q71 0 132.5 -16t99.5 -39.5t65.5 -46.5t39.5 -39l11 -16l-96 -111q-4 5 -11 14t-32.5 32t-54 40.5t-75 32t-95.5 14.5q-134 0 -248 -80.5t-179 -214.5t-65 -288 q0 -184 95 -307.5t253 -123.5q49 0 98.5 14t85 33.5t64 39t43.5 33.5l14 14l68 -111l-17 -17t-49 -38t-80 -48t-109 -38t-138 -17l-19 -34q44 -2 72.5 -30.5t28.5 -80.5q0 -72 -46.5 -118t-121.5 -46q-42 0 -74 14t-43 28l-12 15l47 58q3 -5 10 -11.5t30 -18t48 -11.5 q40 0 63 22t23 60q0 26 -17.5 40.5t-48.5 14.5z" />
<glyph unicode="&#xc8;" horiz-adv-x="1015" d="M940 688l-18 -133h-551l-60 -422h647l-18 -133h-790l172 1229h790l-18 -133h-648l-57 -408h551zM692 1300l-125 271l174 26l54 -297h-103z" />
<glyph unicode="&#xc9;" horiz-adv-x="1015" d="M979 1571l-205 -271h-102l139 297zM940 688l-18 -133h-551l-60 -422h647l-18 -133h-790l172 1229h790l-18 -133h-648l-57 -408h551z" />
<glyph unicode="&#xca;" horiz-adv-x="1015" d="M850 1368l-78 125l-119 -125h-131l203 221h113l143 -221h-131zM940 688l-18 -133h-551l-60 -422h647l-18 -133h-790l172 1229h790l-18 -133h-648l-57 -408h551z" />
<glyph unicode="&#xcb;" horiz-adv-x="1015" d="M506 1454q0 41 32.5 74t71.5 33q32 0 55 -25.5t23 -60.5q0 -41 -32.5 -74t-71.5 -33q-32 0 -55 25.5t-23 60.5zM815 1454q0 41 33.5 74t73.5 33q32 0 54.5 -25.5t22.5 -60.5q0 -41 -32.5 -74t-71.5 -33q-34 0 -57 25.5t-23 60.5zM940 688l-18 -133h-551l-60 -422h647 l-18 -133h-790l172 1229h790l-18 -133h-648l-57 -408h551z" />
<glyph unicode="&#xcc;" horiz-adv-x="442" d="M465 1229l-172 -1229h-143l172 1229h143zM348 1300l-125 271l174 26l54 -297h-103z" />
<glyph unicode="&#xcd;" horiz-adv-x="442" d="M465 1229l-172 -1229h-143l172 1229h143zM659 1571l-204 -271h-103l140 297z" />
<glyph unicode="&#xce;" horiz-adv-x="442" d="M465 1229l-172 -1229h-143l172 1229h143zM516 1368l-78 125l-119 -125h-131l203 221h113l143 -221h-131z" />
<glyph unicode="&#xcf;" horiz-adv-x="442" d="M465 1229l-172 -1229h-143l172 1229h143zM180 1454q0 41 33 74t72 33q32 0 54.5 -25.5t22.5 -60.5q0 -41 -32.5 -74t-71.5 -33q-32 0 -55 25.5t-23 60.5zM489 1454q0 41 33.5 74t73.5 33q32 0 55 -25.5t23 -60.5q0 -41 -33 -74t-72 -33q-34 0 -57 25.5t-23 60.5z" />
<glyph unicode="&#xd0;" horiz-adv-x="1177" d="M121 557l18 131h107l76 541h380q228 0 359 -139.5t131 -376.5q0 -158 -49.5 -291.5t-137 -226t-210 -144t-265.5 -51.5h-380l77 557h-106zM676 1096h-230l-57 -408h326l-19 -131h-325l-60 -424h230q102 0 194 39.5t161 110t110 177t41 232.5q0 188 -102 296t-269 108z " />
<glyph unicode="&#xd1;" horiz-adv-x="1239" d="M1262 1229l-172 -1229h-99l-565 961l-133 -961h-143l172 1229h100l561 -957l135 957h144zM961 1368q-40 0 -79 19t-64.5 41.5t-57 41.5t-58.5 19q-39 0 -61.5 -24t-38.5 -66l-12 -33l-98 12l18 54q60 170 192 170q39 0 77 -19t64 -42.5t58 -42.5t60 -19q41 0 63.5 24.5 t36.5 67.5l10 31l100 -11l-16 -51q-24 -76 -72 -124t-122 -48z" />
<glyph unicode="&#xd2;" horiz-adv-x="1261" d="M625 -29q-218 0 -344.5 154t-126.5 391q0 150 49.5 286t135 236t207 158.5t259.5 58.5q221 0 348 -152.5t127 -391.5q0 -201 -83 -369.5t-234 -269.5t-338 -101zM645 109q138 0 251.5 81t176 214t62.5 288q0 185 -94 306.5t-255 121.5q-102 0 -192.5 -48.5t-154 -129 t-100 -187.5t-36.5 -223q0 -183 91.5 -303t250.5 -120zM772 1368l-125 270l174 27l53 -297h-102z" />
<glyph unicode="&#xd3;" horiz-adv-x="1261" d="M1071 1638l-205 -270h-102l139 297zM625 -29q-218 0 -344.5 154t-126.5 391q0 150 49.5 286t135 236t207 158.5t259.5 58.5q221 0 348 -152.5t127 -391.5q0 -201 -83 -369.5t-234 -269.5t-338 -101zM645 109q138 0 251.5 81t176 214t62.5 288q0 185 -94 306.5t-255 121.5 q-102 0 -192.5 -48.5t-154 -129t-100 -187.5t-36.5 -223q0 -183 91.5 -303t250.5 -120z" />
<glyph unicode="&#xd4;" horiz-adv-x="1261" d="M922 1368l-78 125l-119 -125h-131l203 221h112l144 -221h-131zM625 -29q-218 0 -344.5 154t-126.5 391q0 150 49.5 286t135 236t207 158.5t259.5 58.5q221 0 348 -152.5t127 -391.5q0 -201 -83 -369.5t-234 -269.5t-338 -101zM645 109q138 0 251.5 81t176 214t62.5 288 q0 185 -94 306.5t-255 121.5q-102 0 -192.5 -48.5t-154 -129t-100 -187.5t-36.5 -223q0 -183 91.5 -303t250.5 -120z" />
<glyph unicode="&#xd5;" horiz-adv-x="1261" d="M625 -29q-218 0 -344.5 154t-126.5 391q0 150 49.5 286t135 236t207 158.5t259.5 58.5q221 0 348 -152.5t127 -391.5q0 -201 -83 -369.5t-234 -269.5t-338 -101zM645 109q138 0 251.5 81t176 214t62.5 288q0 185 -94 306.5t-255 121.5q-102 0 -192.5 -48.5t-154 -129 t-100 -187.5t-36.5 -223q0 -183 91.5 -303t250.5 -120zM965 1368q-40 0 -79 19t-64 41.5t-56.5 41.5t-58.5 19q-67 0 -101 -90l-12 -33l-98 12l18 54q60 170 193 170q39 0 77 -19t63.5 -42.5t57.5 -42.5t60 -19q41 0 63.5 24.5t36.5 67.5l10 31l101 -11l-17 -51 q-24 -76 -72 -124t-122 -48z" />
<glyph unicode="&#xd6;" horiz-adv-x="1261" d="M588 1454q0 41 32.5 74t71.5 33q32 0 55 -25.5t23 -60.5q0 -41 -32.5 -74t-71.5 -33q-32 0 -55 25.5t-23 60.5zM897 1454q0 41 33.5 74t73.5 33q32 0 54.5 -25.5t22.5 -60.5q0 -41 -32.5 -74t-71.5 -33q-34 0 -57 25.5t-23 60.5zM625 -29q-218 0 -344.5 154t-126.5 391 q0 150 49.5 286t135 236t207 158.5t259.5 58.5q221 0 348 -152.5t127 -391.5q0 -201 -83 -369.5t-234 -269.5t-338 -101zM645 109q138 0 251.5 81t176 214t62.5 288q0 185 -94 306.5t-255 121.5q-102 0 -192.5 -48.5t-154 -129t-100 -187.5t-36.5 -223q0 -183 91.5 -303 t250.5 -120z" />
<glyph unicode="&#xd7;" horiz-adv-x="919" d="M217 209l-72 82l324 321l-233 324l96 82l227 -316l320 316l69 -82l-323 -324l233 -321l-94 -82l-229 315z" />
<glyph unicode="&#xd8;" horiz-adv-x="1269" d="M625 -29q-211 0 -340 148l-123 -119h-156l217 211q-69 132 -69 305q0 150 49.5 286t135 236t207 158.5t259.5 58.5q214 0 342 -147l125 121h153l-217 -211q72 -132 72 -307q0 -201 -83 -369.5t-234 -269.5t-338 -101zM645 109q138 0 251.5 81t176 214t62.5 288 q0 119 -41 215l-699 -680q91 -118 250 -118zM303 532q0 -118 37 -208l698 677q-95 119 -252 119q-102 0 -192.5 -48.5t-154 -129t-100 -187.5t-36.5 -223z" />
<glyph unicode="&#xd9;" horiz-adv-x="1175" d="M584 -29q-211 0 -311 149t-66 394l100 715h144l-101 -715q-26 -184 38 -296t214 -112q152 0 246.5 112t120.5 296l100 715h143l-100 -715q-34 -246 -174.5 -394.5t-353.5 -148.5zM717 1300l-125 271l174 26l53 -297h-102z" />
<glyph unicode="&#xda;" horiz-adv-x="1175" d="M1018 1571l-205 -271h-102l139 297zM584 -29q-211 0 -311 149t-66 394l100 715h144l-101 -715q-26 -184 38 -296t214 -112q152 0 246.5 112t120.5 296l100 715h143l-100 -715q-34 -246 -174.5 -394.5t-353.5 -148.5z" />
<glyph unicode="&#xdb;" horiz-adv-x="1175" d="M870 1298l-77 125l-119 -125h-131l202 222h113l143 -222h-131zM584 -29q-211 0 -311 149t-66 394l100 715h144l-101 -715q-26 -184 38 -296t214 -112q152 0 246.5 112t120.5 296l100 715h143l-100 -715q-34 -246 -174.5 -394.5t-353.5 -148.5z" />
<glyph unicode="&#xdc;" horiz-adv-x="1175" d="M549 1454q0 41 32.5 74t71.5 33q32 0 55 -25.5t23 -60.5q0 -41 -32.5 -74t-71.5 -33q-32 0 -55 25.5t-23 60.5zM858 1454q0 41 33.5 74t73.5 33q32 0 54.5 -25.5t22.5 -60.5q0 -41 -32.5 -74t-71.5 -33q-34 0 -57 25.5t-23 60.5zM584 -29q-211 0 -311 149t-66 394 l100 715h144l-101 -715q-26 -184 38 -296t214 -112q152 0 246.5 112t120.5 296l100 715h143l-100 -715q-34 -246 -174.5 -394.5t-353.5 -148.5z" />
<glyph unicode="&#xdd;" horiz-adv-x="985" d="M627 680l354 549h164l-516 -756l-66 -473h-143l65 477l-303 752h168l203 -549l25 -78h2zM938 1638l-205 -270h-102l139 297z" />
<glyph unicode="&#xde;" horiz-adv-x="1075" d="M465 1229l-27 -201h303q178 0 275.5 -89t97.5 -255q0 -232 -137 -361.5t-363 -129.5h-295l-26 -193h-143l172 1229h143zM965 664q0 114 -65 171.5t-183 57.5h-299l-80 -565h299q156 0 242 83t86 253z" />
<glyph unicode="&#xdf;" horiz-adv-x="940" d="M522 575l15 103q204 33 231 240q14 92 -29 147t-129 55q-87 0 -146.5 -50.5t-72.5 -149.5l-129 -920h-141l125 903q23 157 131 249.5t260 92.5q149 0 229 -92.5t58 -241.5q-12 -87 -56 -155t-112 -105q95 -29 135.5 -116.5t26.5 -194.5q-23 -169 -135.5 -264.5 t-295.5 -95.5q-37 0 -70.5 5t-48.5 10l-14 5l33 111q37 -13 113 -13q104 0 178 66t88 170q17 114 -38.5 177.5t-160.5 63.5h-45z" />
<glyph unicode="&#xe0;" horiz-adv-x="976" d="M829 723h7l41 137h98l-121 -860h-98l-2 137h-6q-4 -6 -11.5 -17t-35.5 -38t-61 -47.5t-88 -37.5t-116 -17q-138 0 -224.5 103.5t-86.5 272.5q0 112 35.5 211t95 167t138 107.5t163.5 39.5q62 0 113 -16.5t79.5 -39.5t47.5 -46t25 -39zM788 489q0 126 -60 199.5t-155 73.5 q-123 0 -213 -111.5t-90 -275.5q0 -122 58 -199.5t151 -77.5q126 0 217.5 108t91.5 283zM569 1018l-125 270l174 27l54 -297h-103z" />
<glyph unicode="&#xe1;" horiz-adv-x="976" d="M829 723h7l41 137h98l-121 -860h-98l-2 137h-6q-4 -6 -11.5 -17t-35.5 -38t-61 -47.5t-88 -37.5t-116 -17q-138 0 -224.5 103.5t-86.5 272.5q0 112 35.5 211t95 167t138 107.5t163.5 39.5q62 0 113 -16.5t79.5 -39.5t47.5 -46t25 -39zM788 489q0 126 -60 199.5t-155 73.5 q-123 0 -213 -111.5t-90 -275.5q0 -122 58 -199.5t151 -77.5q126 0 217.5 108t91.5 283zM856 1288l-205 -270h-102l139 297z" />
<glyph unicode="&#xe2;" horiz-adv-x="976" d="M829 723h7l41 137h98l-121 -860h-98l-2 137h-6q-4 -6 -11.5 -17t-35.5 -38t-61 -47.5t-88 -37.5t-116 -17q-138 0 -224.5 103.5t-86.5 272.5q0 112 35.5 211t95 167t138 107.5t163.5 39.5q62 0 113 -16.5t79.5 -39.5t47.5 -46t25 -39zM788 489q0 126 -60 199.5t-155 73.5 q-123 0 -213 -111.5t-90 -275.5q0 -122 58 -199.5t151 -77.5q126 0 217.5 108t91.5 283zM719 1085l-78 125l-119 -125h-131l203 222h113l143 -222h-131z" />
<glyph unicode="&#xe3;" horiz-adv-x="976" d="M829 723h7l41 137h98l-121 -860h-98l-2 137h-6q-4 -6 -11.5 -17t-35.5 -38t-61 -47.5t-88 -37.5t-116 -17q-138 0 -224.5 103.5t-86.5 272.5q0 112 35.5 211t95 167t138 107.5t163.5 39.5q62 0 113 -16.5t79.5 -39.5t47.5 -46t25 -39zM788 489q0 126 -60 199.5t-155 73.5 q-123 0 -213 -111.5t-90 -275.5q0 -122 58 -199.5t151 -77.5q126 0 217.5 108t91.5 283zM756 1018q-40 0 -79 19t-64 41.5t-56.5 41.5t-58.5 19q-67 0 -101 -90l-12 -33l-98 12l18 53q60 170 193 170q39 0 77 -19t63.5 -42.5t57.5 -42.5t60 -19q70 0 100 93l10 30l101 -10 l-17 -51q-24 -76 -72 -124t-122 -48z" />
<glyph unicode="&#xe4;" horiz-adv-x="976" d="M829 723h7l41 137h98l-121 -860h-98l-2 137h-6q-4 -6 -11.5 -17t-35.5 -38t-61 -47.5t-88 -37.5t-116 -17q-138 0 -224.5 103.5t-86.5 272.5q0 112 35.5 211t95 167t138 107.5t163.5 39.5q62 0 113 -16.5t79.5 -39.5t47.5 -46t25 -39zM788 489q0 126 -60 199.5t-155 73.5 q-123 0 -213 -111.5t-90 -275.5q0 -122 58 -199.5t151 -77.5q126 0 217.5 108t91.5 283zM373 1104q0 41 32.5 73.5t71.5 32.5q32 0 55 -25.5t23 -60.5q0 -41 -32.5 -73.5t-71.5 -32.5q-32 0 -55 25.5t-23 60.5zM682 1104q0 41 33 73.5t73 32.5q32 0 55 -25.5t23 -60.5 q0 -41 -32.5 -73.5t-71.5 -32.5q-34 0 -57 25.5t-23 60.5z" />
<glyph unicode="&#xe5;" horiz-adv-x="976" d="M829 723h7l41 137h98l-121 -860h-98l-2 137h-6q-4 -6 -11.5 -17t-35.5 -38t-61 -47.5t-88 -37.5t-116 -17q-138 0 -224.5 103.5t-86.5 272.5q0 112 35.5 211t95 167t138 107.5t163.5 39.5q62 0 113 -16.5t79.5 -39.5t47.5 -46t25 -39zM788 489q0 126 -60 199.5t-155 73.5 q-123 0 -213 -111.5t-90 -275.5q0 -122 58 -199.5t151 -77.5q126 0 217.5 108t91.5 283zM436 1194q10 79 73 128.5t150 49.5q84 0 133 -49.5t39 -128.5q-12 -79 -75.5 -128.5t-147.5 -49.5q-87 0 -135.5 49.5t-36.5 128.5zM735 1194q6 42 -17 65t-71 23t-79.5 -23t-37.5 -65 t19.5 -65t73.5 -23t77 22.5t35 65.5z" />
<glyph unicode="&#xe6;" horiz-adv-x="1382" d="M1255 180l37 -102q-4 -4 -11.5 -11t-34 -24.5t-57.5 -30.5t-82.5 -24t-107.5 -11q-104 0 -180.5 42t-116.5 118q-118 -157 -333 -157q-140 0 -210.5 65.5t-70.5 171.5q0 142 103 230t292 88q106 0 195 -33l4 28q17 114 -31 170t-151 56q-56 0 -113.5 -17.5t-86.5 -34.5 l-30 -18l-37 117q5 3 14.5 8.5t40 19t63 23.5t81 18.5t96.5 8.5q212 0 271 -144q122 144 301 144q109 0 179 -57.5t94.5 -152.5t8.5 -218l-4 -35h-571q-21 -153 40.5 -236.5t176.5 -83.5q63 0 120.5 20.5t83.5 41.5zM385 92q112 0 183.5 67.5t84.5 166.5l9 61 q-80 41 -181 41q-248 0 -248 -197q0 -63 38.5 -101t113.5 -38zM1079 760q-186 0 -250 -228h420q1 112 -42 170t-128 58z" />
<glyph unicode="&#xe7;" horiz-adv-x="761" d="M385 -143l-20 32l53 93q-136 13 -214.5 114t-78.5 260q0 226 131.5 375.5t327.5 149.5q50 0 92 -8t66 -19t41 -22t23 -19l7 -8l-57 -107q-3 3 -8 7t-22.5 15t-37 19.5t-50.5 15.5t-63 7q-128 0 -217.5 -108.5t-89.5 -288.5q0 -127 58.5 -197t154.5 -70q51 0 101 16t74 32 l24 16l25 -107q-7 -7 -21.5 -18t-68.5 -31t-119 -24l-31 -60q44 -2 72 -30t28 -80q0 -72 -46.5 -118t-121.5 -46q-42 0 -74 14t-43 28l-12 15l47 57q3 -5 10 -11.5t30 -18t48 -11.5q40 0 63 22t23 60q0 26 -17 41t-48 15z" />
<glyph unicode="&#xe8;" horiz-adv-x="849" d="M721 180l39 -102q-4 -4 -11.5 -11t-34.5 -24.5t-58 -30.5t-82 -24t-107 -11q-161 0 -251.5 102.5t-90.5 272.5q0 147 55 267.5t156 191t227 70.5q111 0 182.5 -57.5t97 -153t9.5 -217.5l-4 -35h-576q-21 -153 42 -236.5t180 -83.5q63 0 119.5 20.5t82.5 41.5zM545 760 q-185 0 -252 -228h424q6 228 -172 228zM530 1018l-124 270l174 27l53 -297h-103z" />
<glyph unicode="&#xe9;" horiz-adv-x="849" d="M838 1288l-205 -270h-103l140 297zM721 180l39 -102q-4 -4 -11.5 -11t-34.5 -24.5t-58 -30.5t-82 -24t-107 -11q-161 0 -251.5 102.5t-90.5 272.5q0 147 55 267.5t156 191t227 70.5q111 0 182.5 -57.5t97 -153t9.5 -217.5l-4 -35h-576q-21 -153 42 -236.5t180 -83.5 q63 0 119.5 20.5t82.5 41.5zM545 760q-185 0 -252 -228h424q6 228 -172 228z" />
<glyph unicode="&#xea;" horiz-adv-x="849" d="M680 1016l-78 125l-119 -125h-131l203 221h113l143 -221h-131zM721 180l39 -102q-4 -4 -11.5 -11t-34.5 -24.5t-58 -30.5t-82 -24t-107 -11q-161 0 -251.5 102.5t-90.5 272.5q0 147 55 267.5t156 191t227 70.5q111 0 182.5 -57.5t97 -153t9.5 -217.5l-4 -35h-576 q-21 -153 42 -236.5t180 -83.5q63 0 119.5 20.5t82.5 41.5zM545 760q-185 0 -252 -228h424q6 228 -172 228z" />
<glyph unicode="&#xeb;" horiz-adv-x="849" d="M352 1104q0 41 33 73.5t72 32.5q32 0 55 -25.5t23 -60.5q0 -41 -33 -73.5t-72 -32.5q-32 0 -55 25.5t-23 60.5zM662 1104q0 41 33 73.5t73 32.5q32 0 55 -25.5t23 -60.5q0 -41 -33 -73.5t-72 -32.5q-33 0 -56 25t-23 61zM721 180l39 -102q-4 -4 -11.5 -11t-34.5 -24.5 t-58 -30.5t-82 -24t-107 -11q-161 0 -251.5 102.5t-90.5 272.5q0 147 55 267.5t156 191t227 70.5q111 0 182.5 -57.5t97 -153t9.5 -217.5l-4 -35h-576q-21 -153 42 -236.5t180 -83.5q63 0 119.5 20.5t82.5 41.5zM545 760q-185 0 -252 -228h424q6 228 -172 228z" />
<glyph unicode="&#xec;" horiz-adv-x="393" d="M125 0l121 860h141l-121 -860h-141zM279 1018l-125 270l174 27l53 -297h-102z" />
<glyph unicode="&#xed;" horiz-adv-x="393" d="M596 1288l-205 -270h-102l139 297zM125 0l121 860h141l-121 -860h-141z" />
<glyph unicode="&#xee;" horiz-adv-x="393" d="M449 1085l-78 125l-119 -125h-131l203 222h112l144 -222h-131zM125 0l121 860h141l-121 -860h-141z" />
<glyph unicode="&#xef;" horiz-adv-x="393" d="M121 1169q0 41 32.5 74t71.5 33q32 0 55 -25.5t23 -60.5q0 -41 -32.5 -74t-71.5 -33q-32 0 -55 25.5t-23 60.5zM430 1169q0 41 33.5 74t73.5 33q32 0 54.5 -25.5t22.5 -60.5q0 -41 -32.5 -74t-71.5 -33q-34 0 -57 25.5t-23 60.5zM125 0l121 860h141l-121 -860h-141z" />
<glyph unicode="&#xf0;" horiz-adv-x="935" d="M463 -20q-187 0 -274.5 121.5t-57.5 328.5q28 204 150.5 327.5t308.5 123.5q63 0 86 -13l2 9q-21 34 -39 75l-64 146l-239 -146l-35 86l240 146l-121 284l4 23h133l105 -234l249 152l39 -84l-252 -151l189 -422q59 -138 33 -322q-30 -207 -150.5 -328.5t-306.5 -121.5z M776 430q23 158 -34.5 245t-168.5 87q-110 0 -193.5 -87.5t-105.5 -244.5q-23 -156 36 -244t169 -88q111 0 192.5 87.5t104.5 244.5z" />
<glyph unicode="&#xf1;" horiz-adv-x="952" d="M121 0l121 860h100l-6 -127h10q119 148 291 148q153 0 225 -101.5t47 -277.5l-69 -502h-144l68 485q18 127 -27 202t-147 75q-52 0 -98 -23t-77 -59t-51 -76t-28 -80l-74 -524h-141zM770 1085q-40 0 -79 19t-64 41.5t-56.5 41.5t-58.5 19q-39 0 -61.5 -24t-38.5 -66 l-13 -33l-98 13l18 53q60 170 193 170q39 0 77 -19t63.5 -42.5t57.5 -42.5t60 -19q41 0 63.5 24.5t36.5 67.5l11 31l100 -10l-16 -52q-24 -76 -72.5 -124t-122.5 -48z" />
<glyph unicode="&#xf2;" horiz-adv-x="933" d="M928 494q0 -113 -39 -211t-104 -163.5t-149 -102.5t-175 -37q-150 0 -244 102.5t-94 275.5q0 113 38.5 211.5t102.5 166t148.5 106.5t175.5 39q148 0 244 -107t96 -280zM477 94q124 0 216.5 109t92.5 282q0 127 -60.5 204t-154.5 77q-123 0 -215 -111t-92 -284 q0 -127 59.5 -202t153.5 -75zM551 1018l-125 270l174 27l53 -297h-102z" />
<glyph unicode="&#xf3;" horiz-adv-x="933" d="M860 1288l-205 -270h-102l139 297zM928 494q0 -113 -39 -211t-104 -163.5t-149 -102.5t-175 -37q-150 0 -244 102.5t-94 275.5q0 113 38.5 211.5t102.5 166t148.5 106.5t175.5 39q148 0 244 -107t96 -280zM477 94q124 0 216.5 109t92.5 282q0 127 -60.5 204t-154.5 77 q-123 0 -215 -111t-92 -284q0 -127 59.5 -202t153.5 -75z" />
<glyph unicode="&#xf4;" horiz-adv-x="933" d="M715 1085l-78 125l-119 -125h-131l203 222h112l144 -222h-131zM928 494q0 -113 -39 -211t-104 -163.5t-149 -102.5t-175 -37q-150 0 -244 102.5t-94 275.5q0 113 38.5 211.5t102.5 166t148.5 106.5t175.5 39q148 0 244 -107t96 -280zM477 94q124 0 216.5 109t92.5 282 q0 127 -60.5 204t-154.5 77q-123 0 -215 -111t-92 -284q0 -127 59.5 -202t153.5 -75z" />
<glyph unicode="&#xf5;" horiz-adv-x="933" d="M928 494q0 -113 -39 -211t-104 -163.5t-149 -102.5t-175 -37q-150 0 -244 102.5t-94 275.5q0 113 38.5 211.5t102.5 166t148.5 106.5t175.5 39q148 0 244 -107t96 -280zM477 94q124 0 216.5 109t92.5 282q0 127 -60.5 204t-154.5 77q-123 0 -215 -111t-92 -284 q0 -127 59.5 -202t153.5 -75zM752 1087q-40 0 -79 19t-64 41.5t-56.5 41.5t-58.5 19q-67 0 -101 -90l-12 -33l-98 13l18 53q60 170 193 170q39 0 77 -19t63.5 -42.5t57.5 -42.5t60 -19q41 0 63.5 24.5t36.5 67.5l10 31l101 -10l-17 -51q-25 -76 -72.5 -124.5t-121.5 -48.5z " />
<glyph unicode="&#xf6;" horiz-adv-x="933" d="M385 1171q0 41 32.5 74t71.5 33q32 0 55 -25.5t23 -60.5q0 -41 -32.5 -74t-71.5 -33q-32 0 -55 25.5t-23 60.5zM694 1171q0 41 33.5 74t73.5 33q32 0 55 -25.5t23 -60.5q0 -41 -33 -74t-72 -33q-34 0 -57 25.5t-23 60.5zM928 494q0 -113 -39 -211t-104 -163.5 t-149 -102.5t-175 -37q-150 0 -244 102.5t-94 275.5q0 113 38.5 211.5t102.5 166t148.5 106.5t175.5 39q148 0 244 -107t96 -280zM477 94q124 0 216.5 109t92.5 282q0 127 -60.5 204t-154.5 77q-123 0 -215 -111t-92 -284q0 -127 59.5 -202t153.5 -75z" />
<glyph unicode="&#xf7;" horiz-adv-x="911" d="M401 291q0 47 33.5 81t79.5 34q35 0 59.5 -26.5t24.5 -64.5q0 -46 -35 -79t-78 -33q-38 0 -61 24.5t-23 63.5zM487 907q0 47 34.5 81t80.5 34q34 0 58 -26t24 -64q0 -46 -34.5 -79.5t-76.5 -33.5q-38 0 -62 25t-24 63zM184 547l17 119h696l-16 -119h-697z" />
<glyph unicode="&#xf8;" horiz-adv-x="933" d="M928 494q0 -113 -39 -211t-104 -163.5t-149 -102.5t-175 -37q-141 0 -234 90l-71 -70h-113l137 131q-57 94 -57 227q0 113 38.5 211.5t102.5 166t148.5 106.5t175.5 39q133 0 229 -93l70 72h112l-135 -129q64 -103 64 -237zM477 94q124 0 216.5 109t92.5 282 q0 77 -26 144l-436 -461q59 -74 153 -74zM264 371q0 -74 23 -138l434 461q-62 72 -150 72q-123 0 -215 -111t-92 -284z" />
<glyph unicode="&#xf9;" horiz-adv-x="946" d="M559 1018l-125 270l174 27l54 -297h-103zM946 860l-121 -860h-90l-8 123h-6q-44 -62 -117.5 -102.5t-177.5 -40.5q-149 0 -220.5 91t-47.5 263l75 526h142l-72 -510q-36 -252 170 -252q102 0 173 75t83 161l76 526h141z" />
<glyph unicode="&#xfa;" horiz-adv-x="946" d="M862 1288l-205 -270h-102l141 297zM946 860l-121 -860h-90l-8 123h-6q-44 -62 -117.5 -102.5t-177.5 -40.5q-149 0 -220.5 91t-47.5 263l75 526h142l-72 -510q-36 -252 170 -252q102 0 173 75t83 161l76 526h141z" />
<glyph unicode="&#xfb;" horiz-adv-x="946" d="M702 1016l-77 125l-119 -125h-131l203 221h112l144 -221h-132zM946 860l-121 -860h-90l-8 123h-6q-44 -62 -117.5 -102.5t-177.5 -40.5q-149 0 -220.5 91t-47.5 263l75 526h142l-72 -510q-36 -252 170 -252q102 0 173 75t83 161l76 526h141z" />
<glyph unicode="&#xfc;" horiz-adv-x="946" d="M684 1112q4 38 35.5 67t68.5 29q35 0 58.5 -29t19.5 -67q-6 -38 -37.5 -67t-66.5 -29q-37 0 -60.5 29t-17.5 67zM375 1112q4 38 35.5 67t66.5 29t58.5 -29t19.5 -67q-6 -38 -37.5 -67t-66.5 -29t-58.5 29t-17.5 67zM946 860l-121 -860h-90l-8 123h-6 q-44 -62 -117.5 -102.5t-177.5 -40.5q-149 0 -220.5 91t-47.5 263l75 526h142l-72 -510q-36 -252 170 -252q102 0 173 75t83 161l76 526h141z" />
<glyph unicode="&#xfd;" horiz-adv-x="942" d="M733 389l66 471h141l-117 -837q-26 -177 -132 -283.5t-279 -106.5q-65 0 -119.5 14t-86.5 33.5t-55 39t-31 33.5l-9 14l92 96q3 -4 8.5 -11.5t25 -26.5t43 -33t62.5 -26t82 -12q109 0 173 68t83 196l16 111q-111 -111 -252 -111q-162 0 -233.5 108t-46.5 288l63 446h144 l-62 -430q-18 -131 22.5 -212t141.5 -81q55 0 103.5 25t80 64t51 81t25.5 82zM858 1288l-205 -270h-102l139 297z" />
<glyph unicode="&#xfe;" horiz-adv-x="974" d="M293 176h-6l-70 -495h-141l217 1548h141l-76 -541h7q4 8 11 21t34 46t58 58.5t83.5 46.5t110.5 21q138 0 223.5 -103.5t85.5 -273.5q0 -149 -61 -270.5t-160 -187.5t-213 -66q-59 0 -106 20t-71.5 49t-41 58t-20.5 49zM311 373q0 -126 60.5 -200.5t154.5 -74.5 q122 0 210.5 111.5t88.5 277.5q0 122 -57 198.5t-150 76.5q-124 0 -215.5 -108t-91.5 -281z" />
<glyph unicode="&#xff;" horiz-adv-x="942" d="M733 389l66 471h141l-117 -837q-26 -177 -132 -283.5t-279 -106.5q-65 0 -119.5 14t-86.5 33.5t-55 39t-31 33.5l-9 14l92 96q3 -4 8.5 -11.5t25 -26.5t43 -33t62.5 -26t82 -12q109 0 173 68t83 196l16 111q-111 -111 -252 -111q-162 0 -233.5 108t-46.5 288l63 446h144 l-62 -430q-18 -131 22.5 -212t141.5 -81q55 0 103.5 25t80 64t51 81t25.5 82zM373 1104q0 41 32.5 73.5t71.5 32.5q32 0 55 -25.5t23 -60.5q0 -41 -32.5 -73.5t-71.5 -32.5q-32 0 -55 25.5t-23 60.5zM682 1104q0 41 33 73.5t73 32.5q32 0 55 -25.5t23 -60.5 q0 -41 -32.5 -73.5t-71.5 -32.5q-34 0 -57 25.5t-23 60.5z" />
<glyph unicode="&#x152;" horiz-adv-x="1906" d="M625 -29q-218 0 -344.5 154t-126.5 391q0 150 49.5 286t135 236t207 158.5t259.5 58.5q127 0 225 -54t158 -150l24 178h791l-18 -133h-648l-57 -408h551l-19 -133h-550l-60 -422h647l-18 -133h-791l21 156q-179 -185 -436 -185zM645 109q138 0 249.5 81t172.5 214t61 288 q0 186 -91 307t-251 121q-102 0 -192.5 -48.5t-154 -129t-100 -187.5t-36.5 -223q0 -183 91.5 -303t250.5 -120z" />
<glyph unicode="&#x153;" horiz-adv-x="1499" d="M1372 180l39 -102q-4 -4 -11.5 -11t-34.5 -24.5t-58 -30.5t-82 -24t-107 -11q-109 0 -187 47.5t-118 135.5q-64 -86 -156.5 -133t-195.5 -47q-150 0 -244 102.5t-94 275.5q0 113 38.5 211.5t102.5 166t148.5 106.5t175.5 39q96 0 171.5 -49t117.5 -136q60 87 146 136 t191 49q111 0 182.5 -57.5t97 -153t9.5 -217.5l-4 -35h-575q-21 -153 41.5 -236.5t179.5 -83.5q63 0 119.5 20.5t81.5 41.5zM477 94q123 0 212 108.5t89 282.5q0 128 -57 204.5t-150 76.5q-123 0 -215 -111t-92 -284q0 -127 59.5 -202t153.5 -75zM1196 760q-185 0 -252 -228 h424q6 228 -172 228z" />
<glyph unicode="&#x178;" horiz-adv-x="985" d="M627 680l354 549h164l-516 -756l-66 -473h-143l65 477l-303 752h168l203 -549l25 -78h2zM453 1454q0 41 32.5 74t71.5 33q32 0 55 -25.5t23 -60.5q0 -41 -33 -74t-72 -33q-32 0 -54.5 25.5t-22.5 60.5zM762 1454q0 41 33 74t73 33q32 0 55 -25.5t23 -60.5 q0 -41 -32.5 -74t-71.5 -33q-34 0 -57 25.5t-23 60.5z" />
<glyph unicode="&#x2c6;" horiz-adv-x="706" d="M655 1368l-77 125l-119 -125h-131l202 221h113l143 -221h-131z" />
<glyph unicode="&#x2dc;" horiz-adv-x="923" d="M791 1368q-40 0 -79 19t-64.5 41.5t-57 41.5t-58.5 19q-39 0 -61.5 -24t-38.5 -66l-12 -33l-98 12l18 54q60 170 192 170q39 0 77 -19t64 -42.5t58 -42.5t60 -19q41 0 63.5 24.5t36.5 67.5l10 31l100 -11l-16 -51q-24 -76 -72 -124t-122 -48z" />
<glyph unicode="&#x2000;" horiz-adv-x="832" />
<glyph unicode="&#x2001;" horiz-adv-x="1665" />
<glyph unicode="&#x2002;" horiz-adv-x="832" />
<glyph unicode="&#x2003;" horiz-adv-x="1665" />
<glyph unicode="&#x2004;" horiz-adv-x="555" />
<glyph unicode="&#x2005;" horiz-adv-x="416" />
<glyph unicode="&#x2006;" horiz-adv-x="277" />
<glyph unicode="&#x2007;" horiz-adv-x="277" />
<glyph unicode="&#x2008;" horiz-adv-x="208" />
<glyph unicode="&#x2009;" horiz-adv-x="333" />
<glyph unicode="&#x200a;" horiz-adv-x="92" />
<glyph unicode="&#x2010;" horiz-adv-x="741" d="M166 410l16 118h525l-17 -118h-524z" />
<glyph unicode="&#x2011;" horiz-adv-x="741" d="M166 410l16 118h525l-17 -118h-524z" />
<glyph unicode="&#x2012;" horiz-adv-x="741" d="M166 410l16 118h525l-17 -118h-524z" />
<glyph unicode="&#x2013;" horiz-adv-x="868" d="M186 530l17 119h628l-16 -119h-629z" />
<glyph unicode="&#x2014;" horiz-adv-x="1335" d="M186 530l17 119h1095l-16 -119h-1096z" />
<glyph unicode="&#x2018;" horiz-adv-x="403" d="M213 903l2 17q15 123 90 205t187 104l12 -82q-67 -17 -112 -58t-56 -94q28 -6 45.5 -28t17.5 -52q0 -44 -32.5 -76t-75.5 -32q-38 0 -60.5 28t-17.5 68z" />
<glyph unicode="&#x2019;" horiz-adv-x="409" d="M498 1133l-2 -17q-15 -122 -91 -204.5t-188 -104.5l-12 82q66 15 111.5 55.5t56.5 93.5q-28 6 -46 29t-18 53q0 44 32.5 76.5t74.5 32.5q39 0 63 -28t19 -68z" />
<glyph unicode="&#x201a;" horiz-adv-x="378" d="M291 74l-2 -17q-15 -122 -91 -204.5t-188 -104.5l-12 82q68 17 113.5 58.5t54.5 93.5q-28 5 -46 26.5t-18 52.5q0 44 32.5 76.5t74.5 32.5q39 0 63 -28t19 -68z" />
<glyph unicode="&#x201c;" horiz-adv-x="675" d="M485 903l2 17q15 123 90 205t187 104l12 -82q-66 -17 -112 -58.5t-56 -93.5q28 -5 46 -27t18 -53q0 -44 -32.5 -76t-74.5 -32q-39 0 -62 28t-18 68zM213 903l2 17q15 123 90 205t187 104l12 -82q-66 -17 -112 -58.5t-56 -93.5q28 -5 45.5 -27t17.5 -53q0 -44 -32 -76 t-74 -32q-39 0 -62 28t-18 68z" />
<glyph unicode="&#x201d;" horiz-adv-x="679" d="M496 1133l-2 -17q-15 -122 -91 -204.5t-188 -104.5l-12 82q66 15 110.5 56t55.5 95q-28 6 -45 27.5t-17 52.5q0 44 32.5 76.5t74.5 32.5q38 0 62 -28t20 -68zM768 1133l-2 -17q-15 -122 -91 -204.5t-188 -104.5l-12 82q66 15 110.5 56t55.5 95q-28 6 -44.5 27.5 t-16.5 52.5q0 44 32 76.5t74 32.5q38 0 62 -28t20 -68z" />
<glyph unicode="&#x201e;" horiz-adv-x="681" d="M346 74l-4 -17q-17 -124 -91 -205.5t-185 -103.5l-13 82q66 15 110.5 56.5t55.5 95.5q-31 6 -48 31.5t-11 60.5q4 40 35 68t69 28t62 -28t20 -68zM326 -170q66 15 111.5 56t56.5 94q-31 6 -49.5 32.5t-12.5 61.5q4 40 35.5 68t69.5 28q39 0 62.5 -28t18.5 -68l-4 -17 q-17 -124 -91 -205.5t-185 -103.5z" />
<glyph unicode="&#x2022;" horiz-adv-x="587" d="M381 606q53 0 88 -38t35 -93q0 -67 -50 -116.5t-114 -49.5q-55 0 -90 37t-35 92q0 67 50 117.5t116 50.5z" />
<glyph unicode="&#x2026;" horiz-adv-x="1363" d="M117 82q0 54 39 93.5t92 39.5q44 0 72 -30t28 -74q0 -53 -40 -92t-93 -39q-44 0 -71 29t-27 73zM580 82q0 54 39.5 93.5t93.5 39.5q42 0 70 -30.5t28 -73.5q0 -53 -39.5 -92t-91.5 -39q-44 0 -72 29.5t-28 72.5zM1042 82q0 54 40 93.5t94 39.5q42 0 71 -30.5t29 -73.5 q0 -55 -40 -93t-93 -38q-44 0 -72.5 29.5t-28.5 72.5z" />
<glyph unicode="&#x202f;" horiz-adv-x="333" />
<glyph unicode="&#x2039;" horiz-adv-x="503" d="M133 403l6 48l285 385h121l-4 -21l-275 -381l-2 -10l168 -387l-4 -21h-121z" />
<glyph unicode="&#x203a;" horiz-adv-x="501" d="M492 451l-7 -48l-282 -387h-125l2 21l278 387l2 10l-170 381l3 21h124z" />
<glyph unicode="&#x205f;" horiz-adv-x="416" />
<glyph unicode="&#x20ac;" horiz-adv-x="1040" d="M809 526l-16 -110h-379q6 -145 70.5 -228.5t193.5 -83.5q43 0 84 12.5t70 30t51.5 34.5t33.5 29l11 13l53 -102q-5 -6 -13.5 -16t-39.5 -35.5t-66 -45t-90.5 -35.5t-114.5 -16q-93 0 -165.5 34t-119.5 95t-73 140t-31 174h-137l16 110h121q0 30 8 92q5 45 19 101h-121 l14 110h138q70 193 201 309.5t311 116.5q59 0 110 -15t81.5 -36.5t52.5 -43.5t31 -37l9 -15l-86 -109q-3 5 -8 13t-24.5 29t-42.5 37t-61 29t-81 13q-243 0 -346 -291h377l-14 -110h-392q-12 -50 -18 -101q-8 -70 -10 -92h393z" />
<glyph unicode="&#x2122;" horiz-adv-x="1314" d="M801 575h-101l93 654h69l170 -305l262 305h64l-92 -654h-97l66 461l-209 -243h-25l-135 239zM686 1229l-12 -88h-178l-80 -566h-97l80 566h-178l12 88h453z" />
<glyph unicode="&#x25fc;" horiz-adv-x="860" d="M0 860h860v-860h-860v860z" />
</font>
</defs>
</svg>
